<svg width="1080" height="1080" viewBox="0 0 1080 1080" fill="none" xmlns="http://www.w3.org/2000/svg">
<g clip-path="url(#clip0_3387_21605)">
<rect width="1080" height="1080" fill="white"/>
<rect width="1080" height="1080" fill="#FF0000"/>
<path d="M452.55 416H510.85V678.35C510.85 720.15 497.1 752.233 469.6 774.6C442.1 796.967 408.733 808.15 369.5 808.15C306.067 808.15 262.617 785.967 239.15 741.6L290.3 711.9C304.6 740.133 331.367 754.25 370.6 754.25C396.267 754.25 416.25 747.467 430.55 733.9C445.217 720.7 452.55 702.183 452.55 678.35V644.8C430.183 676.7 398.283 692.65 356.85 692.65C317.983 692.65 285.167 678.9 258.4 651.4C231.633 623.533 218.25 589.983 218.25 550.75C218.25 511.517 231.633 478.15 258.4 450.65C285.167 422.783 317.983 408.85 356.85 408.85C398.283 408.85 430.183 424.8 452.55 456.7V416ZM302.4 612.35C319.267 628.85 340.167 637.1 365.1 637.1C390.033 637.1 410.75 628.85 427.25 612.35C444.117 595.85 452.55 575.317 452.55 550.75C452.55 526.183 444.117 505.65 427.25 489.15C410.75 472.65 390.033 464.4 365.1 464.4C340.167 464.4 319.267 472.65 302.4 489.15C285.9 505.65 277.65 526.183 277.65 550.75C277.65 575.317 285.9 595.85 302.4 612.35ZM724.736 408.85C762.502 408.85 794.769 422.783 821.536 450.65C848.302 478.517 861.686 512.8 861.686 553.5C861.686 593.833 848.302 628.117 821.536 656.35C794.769 684.217 762.502 698.15 724.736 698.15C682.936 698.15 650.852 682.567 628.486 651.4V691H569.086V306H628.486V455.05C650.852 424.25 682.936 408.85 724.736 408.85ZM653.236 616.75C669.736 633.25 690.452 641.5 715.386 641.5C740.319 641.5 761.036 633.25 777.536 616.75C794.036 599.883 802.286 578.8 802.286 553.5C802.286 528.2 794.036 507.3 777.536 490.8C761.036 473.933 740.319 465.5 715.386 465.5C690.452 465.5 669.736 473.933 653.236 490.8C636.736 507.3 628.486 528.2 628.486 553.5C628.486 578.8 636.736 599.883 653.236 616.75Z" fill="white"/>
</g>
<defs>
<clipPath id="clip0_3387_21605">
<rect width="1080" height="1080" fill="white"/>
</clipPath>
</defs>
</svg>
