<svg width="48" height="48" viewBox="0 0 48 48" fill="none" xmlns="http://www.w3.org/2000/svg">
<g clip-path="url(#clip0_6896_44745)">
<path d="M48 0H0V48H48V0Z" fill="#FF0000"/>
<path d="M18.7521 17.0001H22.1441V32.2641C22.1441 34.6961 21.3441 36.5628 19.7441 37.8641C18.1441 39.1654 16.2028 39.8161 13.9201 39.8161C10.2294 39.8161 7.70145 38.5254 6.33612 35.9441L9.31212 34.2161C10.1441 35.8588 11.7014 36.6801 13.9841 36.6801C15.4774 36.6801 16.6401 36.2854 17.4721 35.4961C18.3254 34.7281 18.7521 33.6508 18.7521 32.2641V30.3121C17.4508 32.1681 15.5948 33.0961 13.1841 33.0961C10.9228 33.0961 9.01345 32.2961 7.45612 30.6961C5.89879 29.0748 5.12012 27.1228 5.12012 24.8401C5.12012 22.5574 5.89879 20.6161 7.45612 19.0161C9.01345 17.3948 10.9228 16.5841 13.1841 16.5841C15.5948 16.5841 17.4508 17.5121 18.7521 19.3681V17.0001ZM10.0161 28.4241C10.9974 29.3841 12.2134 29.8641 13.6641 29.8641C15.1148 29.8641 16.3201 29.3841 17.2801 28.4241C18.2614 27.4641 18.7521 26.2694 18.7521 24.8401C18.7521 23.4108 18.2614 22.2161 17.2801 21.2561C16.3201 20.2961 15.1148 19.8161 13.6641 19.8161C12.2134 19.8161 10.9974 20.2961 10.0161 21.2561C9.05612 22.2161 8.57612 23.4108 8.57612 24.8401C8.57612 26.2694 9.05612 27.4641 10.0161 28.4241ZM34.5884 16.5841C36.7857 16.5841 38.663 17.3948 40.2204 19.0161C41.7777 20.6374 42.5564 22.6321 42.5564 25.0001C42.5564 27.3468 41.7777 29.3414 40.2204 30.9841C38.663 32.6054 36.7857 33.4161 34.5884 33.4161C32.1564 33.4161 30.2897 32.5094 28.9884 30.6961V33.0001H25.5324V10.6001H28.9884V19.2721C30.2897 17.4801 32.1564 16.5841 34.5884 16.5841ZM30.4284 28.6801C31.3884 29.6401 32.5937 30.1201 34.0444 30.1201C35.495 30.1201 36.7004 29.6401 37.6604 28.6801C38.6204 27.6988 39.1004 26.4721 39.1004 25.0001C39.1004 23.5281 38.6204 22.3121 37.6604 21.3521C36.7004 20.3708 35.495 19.8801 34.0444 19.8801C32.5937 19.8801 31.3884 20.3708 30.4284 21.3521C29.4684 22.3121 28.9884 23.5281 28.9884 25.0001C28.9884 26.4721 29.4684 27.6988 30.4284 28.6801Z" fill="white"/>
</g>
<defs>
<clipPath id="clip0_6896_44745">
<rect width="48" height="48" rx="5" fill="white"/>
</clipPath>
</defs>
</svg>
