<svg width="156" height="26" viewBox="0 0 156 26" fill="none" xmlns="http://www.w3.org/2000/svg">
<path d="M25.534 12.692V14.324C25.534 17.588 24.4573 20.2627 22.304 22.348C20.1507 24.4107 17.34 25.442 13.872 25.442C10.2 25.442 7.16267 24.252 4.76 21.872C2.38 19.492 1.19 16.568 1.19 13.1C1.19 9.65467 2.38 6.742 4.76 4.362C7.16267 1.95933 10.132 0.757998 13.668 0.757998C15.8893 0.757998 17.918 1.268 19.754 2.288C21.59 3.308 23.018 4.67933 24.038 6.402L20.672 8.34C20.0373 7.20667 19.0967 6.3 17.85 5.62C16.6033 4.91733 15.2093 4.566 13.668 4.566C11.1747 4.566 9.12333 5.382 7.514 7.014C5.90467 8.646 5.1 10.686 5.1 13.134C5.1 15.582 5.90467 17.6107 7.514 19.22C9.146 20.8293 11.2767 21.634 13.906 21.634C16.014 21.634 17.7253 21.1467 19.04 20.172C20.3773 19.1747 21.2273 17.8487 21.59 16.194H13.634V12.692H25.534ZM40.5277 8H44.1997V25H40.5277V22.824C39.4171 24.5693 37.6604 25.442 35.2577 25.442C33.3084 25.442 31.7331 24.8187 30.5317 23.572C29.3304 22.3253 28.7297 20.614 28.7297 18.438V8H32.4017V18.064C32.4017 19.3333 32.7417 20.308 33.4217 20.988C34.1017 21.668 35.0311 22.008 36.2097 22.008C37.5017 22.008 38.5444 21.6113 39.3377 20.818C40.1311 20.002 40.5277 18.7667 40.5277 17.112V8ZM52.1656 10.856C53.0949 8.748 54.8402 7.694 57.4016 7.694V11.672C55.9962 11.5813 54.7722 11.9213 53.7296 12.692C52.6869 13.44 52.1656 14.6867 52.1656 16.432V25H48.4936V8H52.1656V10.856ZM71.5727 8H75.2447V25H71.5727V22.824C70.462 24.5693 68.7053 25.442 66.3027 25.442C64.3533 25.442 62.778 24.8187 61.5767 23.572C60.3753 22.3253 59.7747 20.614 59.7747 18.438V8H63.4467V18.064C63.4467 19.3333 63.7867 20.308 64.4667 20.988C65.1467 21.668 66.076 22.008 67.2547 22.008C68.5467 22.008 69.5893 21.6113 70.3827 20.818C71.176 20.002 71.5727 18.7667 71.5727 17.112V8ZM89.1605 7.558C91.4952 7.558 93.4898 8.41933 95.1445 10.142C96.7992 11.8647 97.6265 13.984 97.6265 16.5C97.6265 18.9933 96.7992 21.1127 95.1445 22.858C93.4898 24.5807 91.4952 25.442 89.1605 25.442C86.5765 25.442 84.5932 24.4787 83.2105 22.552V25H79.5385V1.2H83.2105V10.414C84.5932 8.51 86.5765 7.558 89.1605 7.558ZM84.7405 20.41C85.7605 21.43 87.0412 21.94 88.5825 21.94C90.1238 21.94 91.4045 21.43 92.4245 20.41C93.4445 19.3673 93.9545 18.064 93.9545 16.5C93.9545 14.936 93.4445 13.644 92.4245 12.624C91.4045 11.5813 90.1238 11.06 88.5825 11.06C87.0412 11.06 85.7605 11.5813 84.7405 12.624C83.7205 13.644 83.2105 14.936 83.2105 16.5C83.2105 18.064 83.7205 19.3673 84.7405 20.41ZM114.419 8H118.091V25H114.419V22.552C113.036 24.4787 111.053 25.442 108.469 25.442C106.134 25.442 104.139 24.5807 102.485 22.858C100.83 21.1127 100.003 18.9933 100.003 16.5C100.003 13.984 100.83 11.8647 102.485 10.142C104.139 8.41933 106.134 7.558 108.469 7.558C111.053 7.558 113.036 8.51 114.419 10.414V8ZM105.205 20.41C106.225 21.43 107.505 21.94 109.047 21.94C110.588 21.94 111.869 21.43 112.889 20.41C113.909 19.3673 114.419 18.064 114.419 16.5C114.419 14.936 113.909 13.644 112.889 12.624C111.869 11.5813 110.588 11.06 109.047 11.06C107.505 11.06 106.225 11.5813 105.205 12.624C104.185 13.644 103.675 14.936 103.675 16.5C103.675 18.064 104.185 19.3673 105.205 20.41ZM125.569 12.692C125.569 13.2587 125.875 13.712 126.487 14.052C127.122 14.3693 127.881 14.6527 128.765 14.902C129.672 15.1287 130.578 15.4007 131.485 15.718C132.392 16.0353 133.151 16.5793 133.763 17.35C134.398 18.098 134.715 19.05 134.715 20.206C134.715 21.838 134.08 23.1187 132.811 24.048C131.564 24.9773 129.989 25.442 128.085 25.442C126.408 25.442 124.968 25.0907 123.767 24.388C122.566 23.6853 121.693 22.7107 121.149 21.464L124.311 19.628C124.9 21.26 126.158 22.076 128.085 22.076C130.012 22.076 130.975 21.4413 130.975 20.172C130.975 19.628 130.658 19.186 130.023 18.846C129.411 18.506 128.652 18.2227 127.745 17.996C126.861 17.7467 125.966 17.4633 125.059 17.146C124.152 16.8287 123.382 16.3073 122.747 15.582C122.135 14.834 121.829 13.8933 121.829 12.76C121.829 11.196 122.418 9.938 123.597 8.986C124.798 8.034 126.283 7.558 128.051 7.558C129.456 7.558 130.703 7.87533 131.791 8.51C132.902 9.122 133.752 9.98333 134.341 11.094L131.247 12.828C130.658 11.536 129.592 10.89 128.051 10.89C127.348 10.89 126.759 11.0487 126.283 11.366C125.807 11.6607 125.569 12.1027 125.569 12.692ZM140.401 18.064C140.673 19.356 141.296 20.3533 142.271 21.056C143.246 21.736 144.436 22.076 145.841 22.076C147.79 22.076 149.252 21.3733 150.227 19.968L153.253 21.736C151.576 24.2067 149.094 25.442 145.807 25.442C143.042 25.442 140.809 24.6033 139.109 22.926C137.409 21.226 136.559 19.084 136.559 16.5C136.559 13.9613 137.398 11.842 139.075 10.142C140.752 8.41933 142.906 7.558 145.535 7.558C148.028 7.558 150.068 8.43067 151.655 10.176C153.264 11.9213 154.069 14.0407 154.069 16.534C154.069 16.9193 154.024 17.4293 153.933 18.064H140.401ZM140.367 15.072H150.363C150.114 13.6893 149.536 12.6467 148.629 11.944C147.745 11.2413 146.702 10.89 145.501 10.89C144.141 10.89 143.008 11.264 142.101 12.012C141.194 12.76 140.616 13.78 140.367 15.072Z" fill="white"/>
</svg>
