<svg width="154" height="26" viewBox="0 0 154 26" fill="none" xmlns="http://www.w3.org/2000/svg">
<path d="M24.534 12.692V14.324C24.534 17.588 23.4573 20.2627 21.304 22.348C19.1507 24.4107 16.34 25.442 12.872 25.442C9.2 25.442 6.16267 24.252 3.76 21.872C1.38 19.492 0.19 16.568 0.19 13.1C0.19 9.65467 1.38 6.742 3.76 4.362C6.16267 1.95933 9.132 0.757998 12.668 0.757998C14.8893 0.757998 16.918 1.268 18.754 2.288C20.59 3.308 22.018 4.67933 23.038 6.402L19.672 8.34C19.0373 7.20667 18.0967 6.3 16.85 5.62C15.6033 4.91733 14.2093 4.566 12.668 4.566C10.1747 4.566 8.12333 5.382 6.514 7.014C4.90467 8.646 4.1 10.686 4.1 13.134C4.1 15.582 4.90467 17.6107 6.514 19.22C8.146 20.8293 10.2767 21.634 12.906 21.634C15.014 21.634 16.7253 21.1467 18.04 20.172C19.3773 19.1747 20.2273 17.8487 20.59 16.194H12.634V12.692H24.534ZM39.5277 8H43.1997V25H39.5277V22.824C38.4171 24.5693 36.6604 25.442 34.2577 25.442C32.3084 25.442 30.7331 24.8187 29.5317 23.572C28.3304 22.3253 27.7297 20.614 27.7297 18.438V8H31.4017V18.064C31.4017 19.3333 31.7417 20.308 32.4217 20.988C33.1017 21.668 34.0311 22.008 35.2097 22.008C36.5017 22.008 37.5444 21.6113 38.3377 20.818C39.1311 20.002 39.5277 18.7667 39.5277 17.112V8ZM51.1656 10.856C52.0949 8.748 53.8402 7.694 56.4016 7.694V11.672C54.9962 11.5813 53.7722 11.9213 52.7296 12.692C51.6869 13.44 51.1656 14.6867 51.1656 16.432V25H47.4936V8H51.1656V10.856ZM70.5727 8H74.2447V25H70.5727V22.824C69.462 24.5693 67.7053 25.442 65.3027 25.442C63.3533 25.442 61.778 24.8187 60.5767 23.572C59.3753 22.3253 58.7747 20.614 58.7747 18.438V8H62.4467V18.064C62.4467 19.3333 62.7867 20.308 63.4667 20.988C64.1467 21.668 65.076 22.008 66.2547 22.008C67.5467 22.008 68.5893 21.6113 69.3827 20.818C70.176 20.002 70.5727 18.7667 70.5727 17.112V8Z" fill="#FF0000"/>
<path d="M88.1605 7.558C90.4952 7.558 92.4898 8.41933 94.1445 10.142C95.7992 11.8647 96.6265 13.984 96.6265 16.5C96.6265 18.9933 95.7992 21.1127 94.1445 22.858C92.4898 24.5807 90.4952 25.442 88.1605 25.442C85.5765 25.442 83.5932 24.4787 82.2105 22.552V25H78.5385V1.2H82.2105V10.414C83.5932 8.51 85.5765 7.558 88.1605 7.558ZM83.7405 20.41C84.7605 21.43 86.0412 21.94 87.5825 21.94C89.1238 21.94 90.4045 21.43 91.4245 20.41C92.4445 19.3673 92.9545 18.064 92.9545 16.5C92.9545 14.936 92.4445 13.644 91.4245 12.624C90.4045 11.5813 89.1238 11.06 87.5825 11.06C86.0412 11.06 84.7605 11.5813 83.7405 12.624C82.7205 13.644 82.2105 14.936 82.2105 16.5C82.2105 18.064 82.7205 19.3673 83.7405 20.41ZM113.419 8H117.091V25H113.419V22.552C112.036 24.4787 110.053 25.442 107.469 25.442C105.134 25.442 103.139 24.5807 101.485 22.858C99.8298 21.1127 99.0025 18.9933 99.0025 16.5C99.0025 13.984 99.8298 11.8647 101.485 10.142C103.139 8.41933 105.134 7.558 107.469 7.558C110.053 7.558 112.036 8.51 113.419 10.414V8ZM104.205 20.41C105.225 21.43 106.505 21.94 108.047 21.94C109.588 21.94 110.869 21.43 111.889 20.41C112.909 19.3673 113.419 18.064 113.419 16.5C113.419 14.936 112.909 13.644 111.889 12.624C110.869 11.5813 109.588 11.06 108.047 11.06C106.505 11.06 105.225 11.5813 104.205 12.624C103.185 13.644 102.675 14.936 102.675 16.5C102.675 18.064 103.185 19.3673 104.205 20.41ZM124.569 12.692C124.569 13.2587 124.875 13.712 125.487 14.052C126.122 14.3693 126.881 14.6527 127.765 14.902C128.672 15.1287 129.578 15.4007 130.485 15.718C131.392 16.0353 132.151 16.5793 132.763 17.35C133.398 18.098 133.715 19.05 133.715 20.206C133.715 21.838 133.08 23.1187 131.811 24.048C130.564 24.9773 128.989 25.442 127.085 25.442C125.408 25.442 123.968 25.0907 122.767 24.388C121.566 23.6853 120.693 22.7107 120.149 21.464L123.311 19.628C123.9 21.26 125.158 22.076 127.085 22.076C129.012 22.076 129.975 21.4413 129.975 20.172C129.975 19.628 129.658 19.186 129.023 18.846C128.411 18.506 127.652 18.2227 126.745 17.996C125.861 17.7467 124.966 17.4633 124.059 17.146C123.152 16.8287 122.382 16.3073 121.747 15.582C121.135 14.834 120.829 13.8933 120.829 12.76C120.829 11.196 121.418 9.938 122.597 8.986C123.798 8.034 125.283 7.558 127.051 7.558C128.456 7.558 129.703 7.87533 130.791 8.51C131.902 9.122 132.752 9.98333 133.341 11.094L130.247 12.828C129.658 11.536 128.592 10.89 127.051 10.89C126.348 10.89 125.759 11.0487 125.283 11.366C124.807 11.6607 124.569 12.1027 124.569 12.692ZM139.401 18.064C139.673 19.356 140.296 20.3533 141.271 21.056C142.246 21.736 143.436 22.076 144.841 22.076C146.79 22.076 148.252 21.3733 149.227 19.968L152.253 21.736C150.576 24.2067 148.094 25.442 144.807 25.442C142.042 25.442 139.809 24.6033 138.109 22.926C136.409 21.226 135.559 19.084 135.559 16.5C135.559 13.9613 136.398 11.842 138.075 10.142C139.752 8.41933 141.906 7.558 144.535 7.558C147.028 7.558 149.068 8.43067 150.655 10.176C152.264 11.9213 153.069 14.0407 153.069 16.534C153.069 16.9193 153.024 17.4293 152.933 18.064H139.401ZM139.367 15.072H149.363C149.114 13.6893 148.536 12.6467 147.629 11.944C146.745 11.2413 145.702 10.89 144.501 10.89C143.141 10.89 142.008 11.264 141.101 12.012C140.194 12.76 139.616 13.78 139.367 15.072Z" fill="#1B242D"/>
</svg>
